# xmcd
#
# Track frame offsets:
#	150
#	14515
#	33428
#	52127
#	71945
#	87872
#	101330
#	116416
#	136606
#	152713
#	167041
#	181254
#	201209
#	215898
#	232307
#	249386
#
# Disc length: 3494 seconds
#
# Revision: 1
# Processed by: cddbd v1.5.1PL0 Copyright (c) Steve Scherf et al.
# Submitted via: audiograbber 1.83.01
#
DISCID=e40da410
DTITLE=Coletânia - Chama Gaúcha  vol. 04
DYEAR=2004
DGENRE=Sertanejo
TTITLE0=Maate Quente - Comida boa
TTITLE1=Grupo Minuano - Chega de bole bole
TTITLE2=Os serrano e Sérgio Reis - Nossa Vanera
TTITLE3=Os Monarcas - Saudades do Paraná
TTITLE4=Chiquito e Bordoneio - Remelexo
TTITLE5=Maate Quente - Ela só caminha
TTITLE6=Os serranos - Iguaria Campeira
TTITLE7=Os Monarcas - Brasil de Bombacha
TTITLE8=Tchê Campeiro - O aviâozinho
TTITLE9=Grupo Minuano - Vem pra cá Neguinha
TTITLE10=Oswaldir e Carlos Magrão - Gaucho amigo
TTITLE11=Mano Lima - Marrequinha
TTITLE12=Tchê Barbaridade - Vanera do povão
TTITLE13=Grupo Minuano - Menina Sapequinha
TTITLE14=Tchê Campeiro - Disk mulher deprimida
TTITLE15=Tchê Barbaridade - Lá vem o tchê
EXTD=Coletânia Chama Gaúcha  vol. 04
EXTT0=
EXTT1=
EXTT2=
EXTT3=
EXTT4=
EXTT5=
EXTT6=
EXTT7=
EXTT8=
EXTT9=
EXTT10=
EXTT11=
EXTT12=
EXTT13=
EXTT14=
EXTT15=
PLAYORDER=
